<svg xmlns="http://www.w3.org/2000/svg" viewBox="0 0 100 100">
  <defs>
    <linearGradient id="lotus-gold" x1="0%" y1="0%" x2="100%" y2="100%">
      <stop offset="0%" stop-color="#FFD700" />
      <stop offset="50%" stop-color="#FFA500" />
      <stop offset="100%" stop-color="#FF6B6B" />
    </linearGradient>
  </defs>
  <g fill="url(#lotus-gold)">
    <path d="M50 20 C48 20, 42 30, 42 42 C42 52, 46 58, 50 58 C54 58, 58 52, 58 42 C58 30, 52 20, 50 20Z" opacity="0.95" />
    <path d="M38 32 C36 32, 28 38, 28 46 C28 53, 32 58, 37 58 C42 58, 45 54, 45 47 C45 39, 40 33, 38 32Z" opacity="0.9" />
    <path d="M28 40 C26 40, 18 44, 18 52 C18 58, 22 62, 28 62 C33 62, 36 58, 36 51 C36 44, 30 40, 28 40Z" opacity="0.85" />
    <path d="M62 32 C64 32, 72 38, 72 46 C72 53, 68 58, 63 58 C58 58, 55 54, 55 47 C55 39, 60 33, 62 32Z" opacity="0.9" />
    <path d="M72 40 C74 40, 82 44, 82 52 C82 58, 78 62, 72 62 C67 62, 64 58, 64 51 C64 44, 70 40, 72 40Z" opacity="0.85" />
    <path d="M50 58 C50 58, 44 60, 40 68 C37 74, 40 78, 44 79 C48 80, 50 76, 50 70 C50 76, 52 80, 56 79 C60 78, 63 74, 60 68 C56 60, 50 58, 50 58Z" opacity="0.85" />
    <circle cx="50" cy="45" r="3" fill="#FFD700" opacity="0.8" />
  </g>
</svg>